<svg xmlns="http://www.w3.org/2000/svg" xmlns:xlink="http://www.w3.org/1999/xlink" width="127" height="28" viewBox="0 0 127 28">
  <defs>
    <clipPath id="clip-path">
      <rect id="Rectangle_75" data-name="Rectangle 75" width="127" height="28" transform="translate(1175.245 37.412)" fill="#fff" stroke="#707070" stroke-width="1"/>
    </clipPath>
  </defs>
  <g id="Mask_Group_7" data-name="Mask Group 7" transform="translate(-1175.245 -37.412)" clip-path="url(#clip-path)">
    <g id="Group_1" data-name="Group 1" transform="translate(1078.694 -318.732)">
      <path id="Path_1" data-name="Path 1" d="M748.922,389.323c-1.413,0-2.827-.034-4.239.018-.5.019-.635-.253-.614-1.013.033-1.177.033-2.361,0-3.538-.022-.722.145-.9.569-.89,2.386.027,4.772-.008,7.158.029.5.008.673-.207.661-1.038-.027-1.931,0-1.932-1.182-1.932-2.2,0-4.4-.018-6.607.015-.455.007-.616-.209-.6-.95.032-1.236.03-2.478,0-3.715-.017-.711.143-.9.573-.9,2.4.029,4.809,0,7.213.031.446.006.614-.173.6-.929-.051-2.277.211-1.936-1.231-1.949-2.166-.02-4.332-.022-6.5.01-.478.007-.7-.149-.66-1.018.05-1.2.026-2.417.006-3.626-.01-.593.094-.839.494-.836,2.918.022,5.836.012,8.755.012a.779.779,0,0,1,.11,0c.636.09,2.386,3.1,2.389,4.117,0,1.12.035,2.246-.018,3.36a3.681,3.681,0,0,1-.364,1.379,14.173,14.173,0,0,1-1.051,1.684.9.9,0,0,0-.007,1.214c.308.41.543.964.859,1.354a3.23,3.23,0,0,1,.582,2.406,1.585,1.585,0,0,0,0,.353c.435,2.911-.811,4.457-1.932,6.084a.736.736,0,0,1-.614.252c-1.45.021-2.9.011-4.35.011Z" transform="translate(-559.906 -7.187)" fill="#fff"/>
      <path id="Path_2" data-name="Path 2" d="M424.7,451.59h-16.85v-5.308H424.7Z" transform="translate(-256.261 -78.707)" fill="#fff"/>
      <path id="Path_3" data-name="Path 3" d="M415.8,364.615c-2.624,0-5.249-.011-7.873.014-.4,0-.559-.14-.542-.829.031-1.266.031-2.537,0-3.8-.016-.673.13-.854.533-.851,2.588.022,5.175.009,7.763.008,2.643,0,5.286.017,7.928-.017.521-.007.769.143.719,1.107-.06,1.172-.035,2.359-.006,3.536.017.674-.137.849-.54.846C421.119,364.6,418.457,364.614,415.8,364.615Z" transform="translate(-255.838 -0.003)" fill="#fff"/>
      <path id="Path_4" data-name="Path 4" d="M140.955,364.612h-.594c-5.19,0-10.38-.017-15.57.026-.587,0-.716-.291-.684-1.148.042-1.116.043-2.242,0-3.357-.03-.785.13-1,.613-1,3.815.029,7.629.019,11.444.017,1.485,0,2.971-.019,4.456,0a.48.48,0,0,1,.32.344C140.962,361.163,140.955,362.834,140.955,364.612Z" fill="#fff"/>
      <path id="Path_5" data-name="Path 5" d="M141.527,450.7h-16.8v-5.338c.208-.02.4-.055.6-.055,5.176,0,10.352.009,15.528-.019.519,0,.713.2.686,1.078C141.495,447.778,141.527,449.192,141.527,450.7Z" transform="translate(-0.563 -77.813)" fill="#fff"/>
      <path id="Path_6" data-name="Path 6" d="M693.919,389.923c-.965,0-1.846-.043-2.724.017-.5.033-.662-.194-.657-1.025.026-4.1.013-8.191.013-12.287q0-3.934,0-7.867v-1h3.369Z" transform="translate(-511.569 -7.79)" fill="#fff"/>
      <path id="Path_7" data-name="Path 7" d="M407.877,532.095h3.293v5.289h-3.293Z" transform="translate(-256.288 -156.208)" fill="#fff"/>
      <path id="Path_8" data-name="Path 8" d="M124.608,531.576c1.038,0,2.025-.017,3.011.025.106,0,.293.35.3.543.025,1.442.022,2.886,0,4.329,0,.174-.171.486-.266.489-1,.036-2.006.022-3.041.022Z" transform="translate(-0.457 -155.736)" fill="#fff"/>
    </g>
  </g>
</svg>
